<?xml version="1.0" encoding="UTF-8"?>
<svg id="reservoir-logo-text" data-name="Reservoir Logo and Text" xmlns="http://www.w3.org/2000/svg"
  viewBox="0 0 288 144">
  <defs>
    <style>
      .title {
        font-family: v-sans, system-ui, -apple-system, BlinkMacSystemFont, "Segoe UI", sans-serif, "Apple Color Emoji", "Segoe UI Emoji", "Segoe UI Symbol";
        font-size: 40px;
        font-weight: 500;
      }

      .title,
      .hull,
      .sail,
      .ocean {
        fill: #63e2b7;
      }

      .hull,
      .sail {
        stroke: #63e2b7;
        stroke-miterlimit: 10;
      }

      .sail {
        stroke-width: .25px;
      }
    </style>
  </defs>
  <text class="title" transform="translate(99.4 86.8)">Reservoir</text>
  <g>
    <path class="hull"
      d="m10.22,105.27l82.72-6.13c-2.34,3.06-4.68,6.11-7.02,9.17-2.75-.32-7.37-.65-13-.01-14.41,1.64-20.35,7.98-34.11,11.06-4.5,1.01-11.55,2.04-20.81,1.11-2.6-5.06-5.19-10.13-7.79-15.19Z" />
    <path class="ocean"
      d="m11.19,122.26c13.02,1.26,26.21.34,38.57-4.13,5.43-1.97,10.41-4.8,15.95-6.67,7.45-2.33,15.47-2.4,23.12-1.15,3.82.63,7.55,1.64,11.16,2.96l-.29.96c-7.33-1.67-14.84-2.6-22.32-2.02-7.43.71-14.83,2.11-21.7,5.19-6.9,3.26-13.85,7.4-21.65,8.25-7.71,1.02-15.76.32-23.05-2.41,0,0,.22-.98.22-.98h0Z" />
    <path class="sail"
      d="m41.27,22.15c-2.26,15.16-5.52,31.74-10.24,49.36-2.98,11.11-6.24,21.53-9.62,31.24,3.22-1.15,7.56-2.37,12.78-2.9,5.19-.53,9.66-.22,13.04.26-1.98-25.98-3.97-51.97-5.95-77.95Zm-6.16,74.44c-3.42.26-6.41.84-8.87,1.47,2.5-7.56,4.93-15.57,7.21-24,2.61-9.64,4.77-18.9,6.57-27.7,1.28,16.77,2.55,33.53,3.83,50.3-2.47-.23-5.43-.32-8.74-.06Z" />
    <path class="sail"
      d="m67.91,62.89c-13.86-21.18-20.6-41.34-24.06-55.44l6.51,91.7c5.83-1.28,12.65-2.36,20.3-2.81,10.34-.62,19.43.07,26.81,1.14-8.9-8.07-19.63-19.42-29.55-34.58Zm1.91,30.38c-6.27.43-11.84,1.36-16.6,2.43-1.6-21.49-3.19-42.98-4.79-64.47,4.77,11.95,11.92,26.44,22.79,41.43,5.91,8.14,11.93,15.09,17.62,20.94-5.38-.55-11.81-.82-19.02-.32Z" />
  </g>
</svg>